<svg width="75" height="100" viewBox="0 0 75 100" fill="none" xmlns="http://www.w3.org/2000/svg">
<path d="M37.5 100C37.5 100 75 64.4625 75 37.5C75 27.5544 71.0491 18.0161 64.0165 10.9835C56.9839 3.95088 47.4456 0 37.5 0C27.5544 0 18.0161 3.95088 10.9835 10.9835C3.95088 18.0161 1.48201e-07 27.5544 0 37.5C0 64.4625 37.5 100 37.5 100ZM37.5 56.25C32.5272 56.25 27.7581 54.2746 24.2417 50.7583C20.7254 47.2419 18.75 42.4728 18.75 37.5C18.75 32.5272 20.7254 27.7581 24.2417 24.2417C27.7581 20.7254 32.5272 18.75 37.5 18.75C42.4728 18.75 47.2419 20.7254 50.7583 24.2417C54.2746 27.7581 56.25 32.5272 56.25 37.5C56.25 42.4728 54.2746 47.2419 50.7583 50.7583C47.2419 54.2746 42.4728 56.25 37.5 56.25Z" fill="#254583"/>
</svg>
